<mxfile host="app.diagrams.net" agent="Mozilla/5.0 (Windows NT 10.0; Win64; x64; rv:139.0) Gecko/20100101 Firefox/139.0" version="27.1.6">
  <diagram name="Page-1" id="jlr2tl08kzcZWouFY2iN">
    <mxGraphModel dx="1393" dy="813" grid="1" gridSize="10" guides="1" tooltips="1" connect="1" arrows="1" fold="1" page="1" pageScale="1" pageWidth="827" pageHeight="1169" math="0" shadow="0">
      <root>
        <mxCell id="0" />
        <mxCell id="1" parent="0" />
        <mxCell id="AJNSMKBmj9X9_fB3Fgbb-84" style="edgeStyle=orthogonalEdgeStyle;rounded=0;orthogonalLoop=1;jettySize=auto;html=1;exitX=0.5;exitY=0;exitDx=0;exitDy=0;entryX=0.5;entryY=1;entryDx=0;entryDy=0;" edge="1" parent="1" source="AJNSMKBmj9X9_fB3Fgbb-2" target="AJNSMKBmj9X9_fB3Fgbb-34">
          <mxGeometry relative="1" as="geometry" />
        </mxCell>
        <mxCell id="AJNSMKBmj9X9_fB3Fgbb-91" style="edgeStyle=orthogonalEdgeStyle;rounded=0;orthogonalLoop=1;jettySize=auto;html=1;exitX=0.75;exitY=1;exitDx=0;exitDy=0;entryX=0;entryY=0.5;entryDx=0;entryDy=0;" edge="1" parent="1" source="AJNSMKBmj9X9_fB3Fgbb-2" target="AJNSMKBmj9X9_fB3Fgbb-28">
          <mxGeometry relative="1" as="geometry" />
        </mxCell>
        <mxCell id="AJNSMKBmj9X9_fB3Fgbb-92" style="edgeStyle=orthogonalEdgeStyle;rounded=0;orthogonalLoop=1;jettySize=auto;html=1;exitX=0.25;exitY=1;exitDx=0;exitDy=0;entryX=0.5;entryY=0;entryDx=0;entryDy=0;" edge="1" parent="1" source="AJNSMKBmj9X9_fB3Fgbb-2" target="AJNSMKBmj9X9_fB3Fgbb-89">
          <mxGeometry relative="1" as="geometry" />
        </mxCell>
        <mxCell id="AJNSMKBmj9X9_fB3Fgbb-94" style="edgeStyle=orthogonalEdgeStyle;rounded=0;orthogonalLoop=1;jettySize=auto;html=1;exitX=0;exitY=0.5;exitDx=0;exitDy=0;entryX=0.5;entryY=1;entryDx=0;entryDy=0;" edge="1" parent="1" source="AJNSMKBmj9X9_fB3Fgbb-2" target="AJNSMKBmj9X9_fB3Fgbb-6">
          <mxGeometry relative="1" as="geometry" />
        </mxCell>
        <mxCell id="AJNSMKBmj9X9_fB3Fgbb-2" value="Pessoa" style="rounded=1;whiteSpace=wrap;html=1;" vertex="1" parent="1">
          <mxGeometry x="330" y="854" width="120" height="60" as="geometry" />
        </mxCell>
        <mxCell id="AJNSMKBmj9X9_fB3Fgbb-62" style="edgeStyle=orthogonalEdgeStyle;rounded=0;orthogonalLoop=1;jettySize=auto;html=1;exitX=0.5;exitY=0;exitDx=0;exitDy=0;entryX=0;entryY=0.5;entryDx=0;entryDy=0;" edge="1" parent="1" source="AJNSMKBmj9X9_fB3Fgbb-6" target="AJNSMKBmj9X9_fB3Fgbb-34">
          <mxGeometry relative="1" as="geometry" />
        </mxCell>
        <mxCell id="AJNSMKBmj9X9_fB3Fgbb-6" value="Dá like" style="rhombus;whiteSpace=wrap;html=1;" vertex="1" parent="1">
          <mxGeometry x="200" y="750" width="80" height="80" as="geometry" />
        </mxCell>
        <mxCell id="AJNSMKBmj9X9_fB3Fgbb-11" value="1" style="text;html=1;align=center;verticalAlign=middle;whiteSpace=wrap;rounded=0;" vertex="1" parent="1">
          <mxGeometry x="350" y="814" width="60" height="30" as="geometry" />
        </mxCell>
        <mxCell id="AJNSMKBmj9X9_fB3Fgbb-12" value="N" style="text;html=1;align=center;verticalAlign=middle;whiteSpace=wrap;rounded=0;" vertex="1" parent="1">
          <mxGeometry x="350" y="750" width="60" height="30" as="geometry" />
        </mxCell>
        <mxCell id="AJNSMKBmj9X9_fB3Fgbb-15" value="1" style="text;html=1;align=center;verticalAlign=middle;whiteSpace=wrap;rounded=0;" vertex="1" parent="1">
          <mxGeometry x="494" y="640" width="60" height="30" as="geometry" />
        </mxCell>
        <mxCell id="AJNSMKBmj9X9_fB3Fgbb-93" style="edgeStyle=orthogonalEdgeStyle;rounded=0;orthogonalLoop=1;jettySize=auto;html=1;exitX=0.5;exitY=0;exitDx=0;exitDy=0;entryX=1;entryY=1;entryDx=0;entryDy=0;" edge="1" parent="1" source="AJNSMKBmj9X9_fB3Fgbb-28" target="AJNSMKBmj9X9_fB3Fgbb-2">
          <mxGeometry relative="1" as="geometry" />
        </mxCell>
        <mxCell id="AJNSMKBmj9X9_fB3Fgbb-28" value="Se conecta com outra" style="rhombus;whiteSpace=wrap;html=1;" vertex="1" parent="1">
          <mxGeometry x="440" y="960" width="80" height="80" as="geometry" />
        </mxCell>
        <mxCell id="AJNSMKBmj9X9_fB3Fgbb-31" value="1" style="text;html=1;align=center;verticalAlign=middle;whiteSpace=wrap;rounded=0;" vertex="1" parent="1">
          <mxGeometry x="380" y="960" width="60" height="30" as="geometry" />
        </mxCell>
        <mxCell id="AJNSMKBmj9X9_fB3Fgbb-32" value="N" style="text;html=1;align=center;verticalAlign=middle;whiteSpace=wrap;rounded=0;" vertex="1" parent="1">
          <mxGeometry x="464" y="924" width="60" height="30" as="geometry" />
        </mxCell>
        <mxCell id="AJNSMKBmj9X9_fB3Fgbb-42" style="edgeStyle=orthogonalEdgeStyle;rounded=0;orthogonalLoop=1;jettySize=auto;html=1;exitX=1;exitY=0;exitDx=0;exitDy=0;entryX=0.5;entryY=1;entryDx=0;entryDy=0;" edge="1" parent="1" source="AJNSMKBmj9X9_fB3Fgbb-34" target="AJNSMKBmj9X9_fB3Fgbb-39">
          <mxGeometry relative="1" as="geometry" />
        </mxCell>
        <mxCell id="AJNSMKBmj9X9_fB3Fgbb-43" style="edgeStyle=orthogonalEdgeStyle;rounded=0;orthogonalLoop=1;jettySize=auto;html=1;exitX=0;exitY=0;exitDx=0;exitDy=0;entryX=0.5;entryY=1;entryDx=0;entryDy=0;" edge="1" parent="1" source="AJNSMKBmj9X9_fB3Fgbb-34" target="AJNSMKBmj9X9_fB3Fgbb-38">
          <mxGeometry relative="1" as="geometry" />
        </mxCell>
        <mxCell id="AJNSMKBmj9X9_fB3Fgbb-49" style="edgeStyle=orthogonalEdgeStyle;rounded=0;orthogonalLoop=1;jettySize=auto;html=1;exitX=0.5;exitY=0;exitDx=0;exitDy=0;entryX=0.5;entryY=1;entryDx=0;entryDy=0;" edge="1" parent="1" source="AJNSMKBmj9X9_fB3Fgbb-34" target="AJNSMKBmj9X9_fB3Fgbb-48">
          <mxGeometry relative="1" as="geometry" />
        </mxCell>
        <mxCell id="AJNSMKBmj9X9_fB3Fgbb-78" style="edgeStyle=orthogonalEdgeStyle;rounded=0;orthogonalLoop=1;jettySize=auto;html=1;exitX=1;exitY=1;exitDx=0;exitDy=0;entryX=0;entryY=0;entryDx=0;entryDy=0;" edge="1" parent="1" source="AJNSMKBmj9X9_fB3Fgbb-34" target="AJNSMKBmj9X9_fB3Fgbb-77">
          <mxGeometry relative="1" as="geometry" />
        </mxCell>
        <mxCell id="AJNSMKBmj9X9_fB3Fgbb-34" value="Post" style="ellipse;whiteSpace=wrap;html=1;" vertex="1" parent="1">
          <mxGeometry x="330" y="660" width="120" height="80" as="geometry" />
        </mxCell>
        <mxCell id="AJNSMKBmj9X9_fB3Fgbb-57" style="edgeStyle=orthogonalEdgeStyle;rounded=0;orthogonalLoop=1;jettySize=auto;html=1;exitX=0;exitY=0.5;exitDx=0;exitDy=0;entryX=0.5;entryY=1;entryDx=0;entryDy=0;" edge="1" parent="1" source="AJNSMKBmj9X9_fB3Fgbb-38" target="AJNSMKBmj9X9_fB3Fgbb-55">
          <mxGeometry relative="1" as="geometry" />
        </mxCell>
        <mxCell id="AJNSMKBmj9X9_fB3Fgbb-58" style="edgeStyle=orthogonalEdgeStyle;rounded=0;orthogonalLoop=1;jettySize=auto;html=1;exitX=0;exitY=0;exitDx=0;exitDy=0;entryX=0.5;entryY=1;entryDx=0;entryDy=0;" edge="1" parent="1" source="AJNSMKBmj9X9_fB3Fgbb-38" target="AJNSMKBmj9X9_fB3Fgbb-56">
          <mxGeometry relative="1" as="geometry" />
        </mxCell>
        <mxCell id="AJNSMKBmj9X9_fB3Fgbb-38" value="Conteúdo" style="ellipse;whiteSpace=wrap;html=1;" vertex="1" parent="1">
          <mxGeometry x="170" y="570" width="120" height="80" as="geometry" />
        </mxCell>
        <mxCell id="AJNSMKBmj9X9_fB3Fgbb-80" style="edgeStyle=orthogonalEdgeStyle;rounded=0;orthogonalLoop=1;jettySize=auto;html=1;exitX=0;exitY=1;exitDx=0;exitDy=0;entryX=1;entryY=0;entryDx=0;entryDy=0;" edge="1" parent="1" source="AJNSMKBmj9X9_fB3Fgbb-39" target="AJNSMKBmj9X9_fB3Fgbb-77">
          <mxGeometry relative="1" as="geometry" />
        </mxCell>
        <mxCell id="AJNSMKBmj9X9_fB3Fgbb-39" value="Comentário" style="ellipse;whiteSpace=wrap;html=1;" vertex="1" parent="1">
          <mxGeometry x="516" y="570" width="120" height="80" as="geometry" />
        </mxCell>
        <mxCell id="AJNSMKBmj9X9_fB3Fgbb-44" value="N" style="text;html=1;align=center;verticalAlign=middle;whiteSpace=wrap;rounded=0;" vertex="1" parent="1">
          <mxGeometry x="570" y="650" width="60" height="30" as="geometry" />
        </mxCell>
        <mxCell id="AJNSMKBmj9X9_fB3Fgbb-45" value="1" style="text;html=1;align=center;verticalAlign=middle;whiteSpace=wrap;rounded=0;" vertex="1" parent="1">
          <mxGeometry x="270" y="640" width="60" height="30" as="geometry" />
        </mxCell>
        <mxCell id="AJNSMKBmj9X9_fB3Fgbb-46" value="1" style="text;html=1;align=center;verticalAlign=middle;whiteSpace=wrap;rounded=0;" vertex="1" parent="1">
          <mxGeometry x="170" y="650" width="60" height="30" as="geometry" />
        </mxCell>
        <mxCell id="AJNSMKBmj9X9_fB3Fgbb-48" value="Quantidade de likes" style="ellipse;whiteSpace=wrap;html=1;" vertex="1" parent="1">
          <mxGeometry x="330" y="520" width="120" height="80" as="geometry" />
        </mxCell>
        <mxCell id="AJNSMKBmj9X9_fB3Fgbb-50" value="1" style="text;html=1;align=center;verticalAlign=middle;whiteSpace=wrap;rounded=0;" vertex="1" parent="1">
          <mxGeometry x="380" y="630" width="60" height="30" as="geometry" />
        </mxCell>
        <mxCell id="AJNSMKBmj9X9_fB3Fgbb-51" value="N" style="text;html=1;align=center;verticalAlign=middle;whiteSpace=wrap;rounded=0;" vertex="1" parent="1">
          <mxGeometry x="380" y="600" width="60" height="30" as="geometry" />
        </mxCell>
        <mxCell id="AJNSMKBmj9X9_fB3Fgbb-53" value="1" style="text;html=1;align=center;verticalAlign=middle;whiteSpace=wrap;rounded=0;" vertex="1" parent="1">
          <mxGeometry x="230" y="844" width="60" height="30" as="geometry" />
        </mxCell>
        <mxCell id="AJNSMKBmj9X9_fB3Fgbb-54" value="N" style="text;html=1;align=center;verticalAlign=middle;whiteSpace=wrap;rounded=0;" vertex="1" parent="1">
          <mxGeometry x="230" y="710" width="60" height="30" as="geometry" />
        </mxCell>
        <mxCell id="AJNSMKBmj9X9_fB3Fgbb-55" value="Texto" style="ellipse;whiteSpace=wrap;html=1;" vertex="1" parent="1">
          <mxGeometry x="60" y="540" width="80" height="50" as="geometry" />
        </mxCell>
        <mxCell id="AJNSMKBmj9X9_fB3Fgbb-56" value="Anexo" style="ellipse;whiteSpace=wrap;html=1;" vertex="1" parent="1">
          <mxGeometry x="148" y="460" width="80" height="50" as="geometry" />
        </mxCell>
        <mxCell id="AJNSMKBmj9X9_fB3Fgbb-105" style="edgeStyle=orthogonalEdgeStyle;rounded=0;orthogonalLoop=1;jettySize=auto;html=1;exitX=0.5;exitY=0;exitDx=0;exitDy=0;entryX=1;entryY=0.5;entryDx=0;entryDy=0;" edge="1" parent="1" source="AJNSMKBmj9X9_fB3Fgbb-59" target="AJNSMKBmj9X9_fB3Fgbb-64">
          <mxGeometry relative="1" as="geometry" />
        </mxCell>
        <mxCell id="AJNSMKBmj9X9_fB3Fgbb-107" style="edgeStyle=orthogonalEdgeStyle;rounded=0;orthogonalLoop=1;jettySize=auto;html=1;exitX=0;exitY=0.5;exitDx=0;exitDy=0;entryX=1;entryY=0.5;entryDx=0;entryDy=0;" edge="1" parent="1" source="AJNSMKBmj9X9_fB3Fgbb-59" target="AJNSMKBmj9X9_fB3Fgbb-106">
          <mxGeometry relative="1" as="geometry" />
        </mxCell>
        <mxCell id="AJNSMKBmj9X9_fB3Fgbb-59" value="Plataforma" style="rounded=1;whiteSpace=wrap;html=1;" vertex="1" parent="1">
          <mxGeometry x="794" y="839" width="150" height="90" as="geometry" />
        </mxCell>
        <mxCell id="AJNSMKBmj9X9_fB3Fgbb-104" style="edgeStyle=orthogonalEdgeStyle;rounded=0;orthogonalLoop=1;jettySize=auto;html=1;exitX=0;exitY=0.5;exitDx=0;exitDy=0;entryX=1;entryY=0.5;entryDx=0;entryDy=0;" edge="1" parent="1" source="AJNSMKBmj9X9_fB3Fgbb-64" target="AJNSMKBmj9X9_fB3Fgbb-34">
          <mxGeometry relative="1" as="geometry" />
        </mxCell>
        <mxCell id="AJNSMKBmj9X9_fB3Fgbb-64" value="Mostra" style="rhombus;whiteSpace=wrap;html=1;" vertex="1" parent="1">
          <mxGeometry x="636" y="660" width="80" height="80" as="geometry" />
        </mxCell>
        <mxCell id="AJNSMKBmj9X9_fB3Fgbb-70" value="1" style="text;html=1;align=center;verticalAlign=middle;whiteSpace=wrap;rounded=0;" vertex="1" parent="1">
          <mxGeometry x="420" y="730" width="60" height="30" as="geometry" />
        </mxCell>
        <mxCell id="AJNSMKBmj9X9_fB3Fgbb-72" value="1" style="text;html=1;align=center;verticalAlign=middle;whiteSpace=wrap;rounded=0;" vertex="1" parent="1">
          <mxGeometry x="440" y="814" width="60" height="30" as="geometry" />
        </mxCell>
        <mxCell id="AJNSMKBmj9X9_fB3Fgbb-83" style="edgeStyle=orthogonalEdgeStyle;rounded=0;orthogonalLoop=1;jettySize=auto;html=1;exitX=0;exitY=1;exitDx=0;exitDy=0;entryX=0.75;entryY=0;entryDx=0;entryDy=0;" edge="1" parent="1" source="AJNSMKBmj9X9_fB3Fgbb-77" target="AJNSMKBmj9X9_fB3Fgbb-2">
          <mxGeometry relative="1" as="geometry" />
        </mxCell>
        <mxCell id="AJNSMKBmj9X9_fB3Fgbb-77" value="Possui autor" style="rhombus;whiteSpace=wrap;html=1;" vertex="1" parent="1">
          <mxGeometry x="474" y="750" width="80" height="80" as="geometry" />
        </mxCell>
        <mxCell id="AJNSMKBmj9X9_fB3Fgbb-82" value="1" style="text;html=1;align=center;verticalAlign=middle;whiteSpace=wrap;rounded=0;" vertex="1" parent="1">
          <mxGeometry x="517" y="720" width="60" height="30" as="geometry" />
        </mxCell>
        <mxCell id="AJNSMKBmj9X9_fB3Fgbb-85" value="0 - 1" style="text;html=1;align=center;verticalAlign=middle;whiteSpace=wrap;rounded=0;" vertex="1" parent="1">
          <mxGeometry x="40" y="590" width="60" height="30" as="geometry" />
        </mxCell>
        <mxCell id="AJNSMKBmj9X9_fB3Fgbb-86" value="1" style="text;html=1;align=center;verticalAlign=middle;whiteSpace=wrap;rounded=0;" vertex="1" parent="1">
          <mxGeometry x="130" y="610" width="60" height="30" as="geometry" />
        </mxCell>
        <mxCell id="AJNSMKBmj9X9_fB3Fgbb-87" value="N" style="text;html=1;align=center;verticalAlign=middle;whiteSpace=wrap;rounded=0;" vertex="1" parent="1">
          <mxGeometry x="170" y="520" width="60" height="30" as="geometry" />
        </mxCell>
        <mxCell id="AJNSMKBmj9X9_fB3Fgbb-88" value="1" style="text;html=1;align=center;verticalAlign=middle;whiteSpace=wrap;rounded=0;" vertex="1" parent="1">
          <mxGeometry x="140" y="550" width="60" height="30" as="geometry" />
        </mxCell>
        <mxCell id="AJNSMKBmj9X9_fB3Fgbb-89" value="Amigos" style="ellipse;whiteSpace=wrap;html=1;" vertex="1" parent="1">
          <mxGeometry x="250" y="960" width="120" height="80" as="geometry" />
        </mxCell>
        <mxCell id="AJNSMKBmj9X9_fB3Fgbb-95" value="1" style="text;html=1;align=center;verticalAlign=middle;whiteSpace=wrap;rounded=0;" vertex="1" parent="1">
          <mxGeometry x="820" y="760" width="60" height="30" as="geometry" />
        </mxCell>
        <mxCell id="AJNSMKBmj9X9_fB3Fgbb-96" value="&lt;div&gt;N&lt;/div&gt;" style="text;html=1;align=center;verticalAlign=middle;whiteSpace=wrap;rounded=0;" vertex="1" parent="1">
          <mxGeometry x="494" y="884" width="60" height="30" as="geometry" />
        </mxCell>
        <mxCell id="AJNSMKBmj9X9_fB3Fgbb-98" value="N" style="text;html=1;align=center;verticalAlign=middle;whiteSpace=wrap;rounded=0;" vertex="1" parent="1">
          <mxGeometry x="590" y="700" width="60" height="30" as="geometry" />
        </mxCell>
        <mxCell id="AJNSMKBmj9X9_fB3Fgbb-99" value="1" style="text;html=1;align=center;verticalAlign=middle;whiteSpace=wrap;rounded=0;" vertex="1" parent="1">
          <mxGeometry x="350" y="914" width="60" height="30" as="geometry" />
        </mxCell>
        <mxCell id="AJNSMKBmj9X9_fB3Fgbb-101" value="N" style="text;html=1;align=center;verticalAlign=middle;whiteSpace=wrap;rounded=0;" vertex="1" parent="1">
          <mxGeometry x="260" y="929" width="60" height="30" as="geometry" />
        </mxCell>
        <mxCell id="AJNSMKBmj9X9_fB3Fgbb-108" style="edgeStyle=orthogonalEdgeStyle;rounded=0;orthogonalLoop=1;jettySize=auto;html=1;exitX=0;exitY=0.5;exitDx=0;exitDy=0;entryX=1;entryY=0.5;entryDx=0;entryDy=0;" edge="1" parent="1" source="AJNSMKBmj9X9_fB3Fgbb-106" target="AJNSMKBmj9X9_fB3Fgbb-2">
          <mxGeometry relative="1" as="geometry" />
        </mxCell>
        <mxCell id="AJNSMKBmj9X9_fB3Fgbb-106" value="Contém" style="rhombus;whiteSpace=wrap;html=1;" vertex="1" parent="1">
          <mxGeometry x="590" y="844" width="80" height="80" as="geometry" />
        </mxCell>
        <mxCell id="AJNSMKBmj9X9_fB3Fgbb-109" value="1" style="text;html=1;align=center;verticalAlign=middle;whiteSpace=wrap;rounded=0;" vertex="1" parent="1">
          <mxGeometry x="700" y="884" width="60" height="30" as="geometry" />
        </mxCell>
      </root>
    </mxGraphModel>
  </diagram>
</mxfile>
